<?xml version="1.0" ?><svg height="400px" version="1.1" viewBox="0 0 400 400" width="400px" xmlns="http://www.w3.org/2000/svg" xmlns:xlink="http://www.w3.org/1999/xlink"><title/><desc/><defs><circle cx="180" cy="332" id="path-1" r="25"/><filter filterUnits="objectBoundingBox" height="200%" id="filter-2" width="200%" x="-50%" y="-50%"><feOffset dx="0" dy="4" in="SourceAlpha" result="shadowOffsetOuter1"/><feGaussianBlur in="shadowOffsetOuter1" result="shadowBlurOuter1" stdDeviation="2"/><feColorMatrix in="shadowBlurOuter1" type="matrix" values="0 0 0 0 0   0 0 0 0 0   0 0 0 0 0  0 0 0 0.5 0"/></filter><circle cx="265" cy="332" id="path-3" r="25"/><filter filterUnits="objectBoundingBox" height="200%" id="filter-4" width="200%" x="-50%" y="-50%"><feOffset dx="0" dy="4" in="SourceAlpha" result="shadowOffsetOuter1"/><feGaussianBlur in="shadowOffsetOuter1" result="shadowBlurOuter1" stdDeviation="2"/><feColorMatrix in="shadowBlurOuter1" type="matrix" values="0 0 0 0 0   0 0 0 0 0   0 0 0 0 0  0 0 0 0.5 0"/></filter><path d="M290.606877,280 L309.259183,240 L163.995904,240 C161.789027,240 160,238.207532 160,236.00077 L160,223.99923 C160,221.790516 161.790488,220 163.995904,220 L318.585336,220 L337.237643,180 L183.990606,180 C181.786655,180 180,178.207532 180,176.00077 L180,163.99923 C180,161.790516 181.781523,160 183.990606,160 L356.009394,160 C358.213345,160 360,161.792468 360,163.99923 L360,176.00077 C360,176.363101 359.952057,176.714178 359.862149,177.047943 C360.009797,177.837684 359.921214,178.678956 359.556074,179.462001 L304.71926,297.059927 C304.266149,298.031627 303.468692,298.735773 302.538453,299.094382 C301.849723,299.660331 300.968338,300 300.007062,300 L143.992938,300 C142.461421,300 141.13129,299.135463 140.461501,297.868027 C139.933065,297.303196 139.561931,296.579117 139.431609,295.756297 L118.571164,164.048629 L48.0131928,102.71352 C46.3490524,101.266905 46.1759646,98.7413991 47.6237309,97.0759344 L55.4974497,88.0182572 C56.9464962,86.3513198 59.4757094,86.177474 61.1343734,87.6193285 L135.081175,151.900302 C135.379925,152.160002 135.630621,152.454472 135.832513,152.772495 C136.670088,153.37492 137.276383,154.299668 137.45089,155.401463 L157.18536,280 L290.606877,280 L290.606877,280 Z" id="path-5"/><filter filterUnits="objectBoundingBox" height="200%" id="filter-6" width="200%" x="-50%" y="-50%"><feOffset dx="0" dy="4" in="SourceAlpha" result="shadowOffsetOuter1"/><feGaussianBlur in="shadowOffsetOuter1" result="shadowBlurOuter1" stdDeviation="2"/><feColorMatrix in="shadowBlurOuter1" type="matrix" values="0 0 0 0 0   0 0 0 0 0   0 0 0 0 0  0 0 0 0.5 0"/></filter></defs><g fill="none" fill-rule="evenodd" id="Page-1" stroke="none" stroke-width="1"><g id="cart"><path d="M200,400 C310.45695,400 400,310.45695 400,200 C400,89.54305 310.45695,0 200,0 C89.54305,0 0,89.54305 0,200 C0,310.45695 89.54305,400 200,400 Z" fill="#AAD8B0" id="Oval-6"/><g id="Oval-40"><use fill="black" fill-opacity="1" filter="url(#filter-2)" xlink:href="#path-1"/><use fill="#697F9B" fill-rule="evenodd" xlink:href="#path-1"/></g><g id="Oval-40-Copy"><use fill="black" fill-opacity="1" filter="url(#filter-4)" xlink:href="#path-3"/><use fill="#697F9B" fill-rule="evenodd" xlink:href="#path-3"/></g><g id="Combined-Shape"><use fill="black" fill-opacity="1" filter="url(#filter-6)" xlink:href="#path-5"/><use fill="#67ADD5" fill-rule="evenodd" xlink:href="#path-5"/></g></g></g></svg>